<svg xmlns="http://www.w3.org/2000/svg" width="869" height="572" viewBox="0 0 869 572"><g><g><path fill="#fee600" d="M32.6 199.542h186v-199h-186z"/></g><g><path d="M66.6 537.542h-30v-13h30z"/></g><g><path d="M122.6 537.542h-30v-13h30z"/></g><g><path d="M72.6 490.542h14v28h-14z"/></g><g><path d="M72.6 543.542h14v28h-14z"/></g><g><path fill="none" stroke="#000" stroke-dasharray="30.002 18.001" stroke-miterlimit="20" stroke-width="6" d="M189.6 44.542v173H3.6v0l.639-199v0L865.6 24.306v311.236l-786 2.439v152.56"/></g><g><path d="M78.6 58.542h-11v46h26v-41h36v41h-10v10h-10v31h20v-26h15v-10h10v-51h-10v-10h-66z"/></g><g><path d="M109.6 175.542h20v-20h-20z"/></g><g><path d="M156.6 397.542h-20v-8h20z"/></g><g><path d="M194.6 397.542h-20v-8h20z"/></g><g><path d="M160.6 366.542h9v18h-9z"/></g><g><path d="M160.6 401.542h9v18h-9z"/></g><g><path d="M769.6 533.542h-17v-7h17z"/></g><g><path d="M801.6 533.542h-17v-7h17z"/></g><g><path d="M772.6 507.542h8v15h-8z"/></g><g><path d="M772.6 536.542h8v15h-8z"/></g><g><path d="M796.6 449.542h-37v-15h37z"/></g><g><path d="M865.6 449.542h-37v-15h37z"/></g><g><path d="M804.6 394.542h17v33h-17z"/></g><g><path d="M804.6 456.542h17v33h-17z"/></g></g></svg>